<svg xmlns="http://www.w3.org/2000/svg" viewBox="0 0 200 200">
  <defs>
    <linearGradient id="hairGrad" x1="0%" y1="0%" x2="100%" y2="100%">
      <stop offset="0%" style="stop-color:#4A3728"/>
      <stop offset="100%" style="stop-color:#6B4F3A"/>
    </linearGradient>
    <linearGradient id="bgGrad" x1="0%" y1="0%" x2="100%" y2="100%">
      <stop offset="0%" style="stop-color:#5DADE2;stop-opacity:0.15"/>
      <stop offset="100%" style="stop-color:#F4D03F;stop-opacity:0.15"/>
    </linearGradient>
  </defs>
  <circle cx="100" cy="100" r="90" fill="url(#bgGrad)"/>
  <circle cx="100" cy="90" r="60" fill="#FFDAB9"/>
  <ellipse cx="100" cy="135" rx="45" ry="30" fill="#FFDAB9"/>
  <circle cx="100" cy="105" r="20" fill="#FFB6C1" opacity="0.3"/>
  <ellipse cx="82" cy="85" rx="6" ry="8" fill="#2C3E50"/>
  <ellipse cx="118" cy="85" rx="6" ry="8" fill="#2C3E50"/>
  <ellipse cx="82" cy="83" rx="2" ry="3" fill="white"/>
  <ellipse cx="118" cy="83" rx="2" ry="3" fill="white"/>
  <ellipse cx="100" cy="100" rx="8" ry="5" fill="#E89F7A"/>
  <path d="M88 110 Q94 118 100 118 Q106 118 112 110" fill="none" stroke="#E67E22" stroke-width="2.5" stroke-linecap="round"/>
  <g opacity="0.4">
    <circle cx="65" cy="75" r="3" fill="#F4D03F"/>
    <circle cx="140" cy="70" r="2" fill="#F4D03F"/>
    <circle cx="55" cy="110" r="2" fill="#5DADE2"/>
    <circle cx="148" cy="105" r="3" fill="#5DADE2"/>
  </g>
</svg>
